<svg width="16" height="17" viewBox="0 0 16 17" fill="none" xmlns="http://www.w3.org/2000/svg">
<path d="M15.6092 7.19793L8.9425 0.398015C8.69248 0.143161 8.35347 0 8 0C7.64653 0 7.30752 0.143161 7.0575 0.398015L0.390841 7.19793C0.266428 7.32388 0.167807 7.47381 0.100711 7.639C0.0336155 7.80418 -0.000615546 7.98132 8.37789e-06 8.16011V16.32C8.37789e-06 16.5004 0.0702463 16.6733 0.19527 16.8008C0.320295 16.9284 0.489864 17 0.666674 17H6C6.17681 17 6.34638 16.9284 6.47141 16.8008C6.59643 16.6733 6.66667 16.5004 6.66667 16.32V11.5601H9.33333V16.32C9.33333 16.5004 9.40357 16.6733 9.52859 16.8008C9.65362 16.9284 9.82319 17 10 17H15.3333C15.5101 17 15.6797 16.9284 15.8047 16.8008C15.9298 16.6733 16 16.5004 16 16.32V8.16011C16.0006 7.98132 15.9664 7.80418 15.8993 7.639C15.8322 7.47381 15.7336 7.32388 15.6092 7.19793ZM14.6667 15.64H10.6667V10.8801C10.6667 10.6997 10.5964 10.5268 10.4714 10.3993C10.3464 10.2717 10.1768 10.2001 10 10.2001H6C5.82319 10.2001 5.65362 10.2717 5.5286 10.3993C5.40357 10.5268 5.33334 10.6997 5.33334 10.8801V15.64H1.33334V8.16011L8 1.3602L14.6667 8.16011V15.64Z" fill="#F9F3E7"/>
</svg>
