<svg width="22" height="16" viewBox="0 0 22 16" fill="none" xmlns="http://www.w3.org/2000/svg">
<path d="M21.0375 8.925C20.9653 8.97917 20.8831 9.01858 20.7956 9.04099C20.7082 9.0634 20.6172 9.06836 20.5278 9.05559C20.4384 9.04282 20.3524 9.01257 20.2747 8.96657C20.1971 8.92057 20.1292 8.85972 20.075 8.7875C19.6606 8.2305 19.1213 7.77858 18.5003 7.46811C17.8794 7.15765 17.1942 6.9973 16.5 7C16.3648 6.99999 16.2326 6.96011 16.12 6.88537C16.0073 6.81062 15.9192 6.70432 15.8667 6.57976C15.831 6.49518 15.8126 6.4043 15.8126 6.3125C15.8126 6.22069 15.831 6.12982 15.8667 6.04523C15.9192 5.92067 16.0073 5.81437 16.12 5.73963C16.2326 5.66488 16.3648 5.62501 16.5 5.625C16.8858 5.62496 17.2638 5.51675 17.5911 5.31265C17.9184 5.10855 18.182 4.81674 18.3518 4.47038C18.5216 4.12401 18.5908 3.73697 18.5517 3.35321C18.5125 2.96945 18.3666 2.60436 18.1303 2.29941C17.8941 1.99446 17.5771 1.76187 17.2153 1.62806C16.8535 1.49425 16.4614 1.46459 16.0836 1.54244C15.7058 1.62029 15.3574 1.80253 15.0779 2.06847C14.7985 2.3344 14.5993 2.67337 14.5028 3.04687C14.4803 3.13434 14.4407 3.2165 14.3864 3.28866C14.332 3.36083 14.264 3.42159 14.1862 3.46748C14.1084 3.51336 14.0223 3.54347 13.9329 3.55609C13.8435 3.56871 13.7524 3.56358 13.6649 3.54101C13.5775 3.51844 13.4953 3.47887 13.4231 3.42454C13.351 3.37022 13.2902 3.30221 13.2443 3.22441C13.1985 3.1466 13.1683 3.06052 13.1557 2.97108C13.1431 2.88164 13.1482 2.79059 13.1708 2.70312C13.3047 2.18519 13.5575 1.70564 13.9093 1.30264C14.2611 0.899643 14.7021 0.584311 15.1972 0.381737C15.6924 0.179163 16.2279 0.094939 16.7613 0.135767C17.2947 0.176594 17.8112 0.341347 18.2697 0.616915C18.7282 0.892482 19.1161 1.27126 19.4025 1.72311C19.6888 2.17496 19.8658 2.6874 19.9192 3.21967C19.9727 3.75195 19.9012 4.28935 19.7104 4.78913C19.5197 5.2889 19.2149 5.73726 18.8203 6.09851C19.7552 6.50328 20.5678 7.14559 21.1776 7.96164C21.2318 8.03405 21.2711 8.11643 21.2934 8.20408C21.3157 8.29172 21.3204 8.38289 21.3074 8.47238C21.2944 8.56187 21.2639 8.64791 21.2176 8.72558C21.1712 8.80324 21.1101 8.87101 21.0375 8.925ZM16.4072 14.2187C16.4569 14.297 16.4903 14.3845 16.5054 14.476C16.5204 14.5675 16.5168 14.6611 16.4948 14.7511C16.4727 14.8412 16.4327 14.9259 16.377 15C16.3214 15.0742 16.2513 15.1364 16.1711 15.1828C16.0908 15.2292 16.002 15.2589 15.9099 15.2701C15.8179 15.2812 15.7245 15.2737 15.6355 15.2478C15.5464 15.222 15.4635 15.1784 15.3917 15.1197C15.32 15.061 15.2608 14.9884 15.2178 14.9062C14.7847 14.1729 14.1679 13.5652 13.4283 13.143C12.6886 12.7208 11.8517 12.4987 11 12.4987C10.1484 12.4987 9.3114 12.7208 8.57174 13.143C7.83209 13.5652 7.21529 14.1729 6.7822 14.9062C6.73922 14.9884 6.68007 15.061 6.6083 15.1197C6.53653 15.1784 6.45362 15.222 6.36457 15.2478C6.27552 15.2737 6.18217 15.2812 6.09012 15.2701C5.99807 15.2589 5.90924 15.2292 5.82897 15.1828C5.74869 15.1364 5.67863 15.0742 5.623 15C5.56737 14.9259 5.52732 14.8412 5.50526 14.7511C5.4832 14.6611 5.47959 14.5675 5.49464 14.476C5.50969 14.3845 5.54309 14.297 5.59283 14.2187C6.25936 13.0735 7.27565 12.1723 8.49236 11.6475C7.80772 11.1233 7.30456 10.3978 7.0536 9.57282C6.80263 8.74788 6.81649 7.86504 7.09322 7.04839C7.36996 6.23173 7.89565 5.52233 8.5964 5.01989C9.29716 4.51745 10.1378 4.24724 11 4.24724C11.8623 4.24724 12.7029 4.51745 13.4036 5.01989C14.1044 5.52233 14.6301 6.23173 14.9068 7.04839C15.1835 7.86504 15.1974 8.74788 14.9464 9.57282C14.6955 10.3978 14.1923 11.1233 13.5077 11.6475C14.7244 12.1723 15.7407 13.0735 16.4072 14.2187ZM11 11.125C11.5439 11.125 12.0756 10.9637 12.5278 10.6615C12.9801 10.3594 13.3325 9.92987 13.5407 9.42738C13.7488 8.92488 13.8033 8.37195 13.6972 7.8385C13.5911 7.30505 13.3292 6.81505 12.9446 6.43045C12.56 6.04586 12.07 5.78395 11.5365 5.67784C11.0031 5.57173 10.4501 5.62619 9.94764 5.83433C9.44514 6.04247 9.01565 6.39495 8.71348 6.84718C8.4113 7.29942 8.25002 7.8311 8.25002 8.375C8.25002 9.10434 8.53975 9.80382 9.05547 10.3195C9.5712 10.8353 10.2707 11.125 11 11.125ZM6.18752 6.3125C6.18752 6.13016 6.11508 5.95529 5.98615 5.82636C5.85722 5.69743 5.68235 5.625 5.50002 5.625C5.11427 5.62496 4.73626 5.51675 4.40893 5.31265C4.0816 5.10855 3.81806 4.81674 3.64826 4.47038C3.47846 4.12401 3.4092 3.73697 3.44834 3.35321C3.48749 2.96945 3.63347 2.60436 3.8697 2.29941C4.10594 1.99446 4.42296 1.76187 4.78476 1.62806C5.14656 1.49425 5.53863 1.46459 5.91644 1.54244C6.29425 1.62029 6.64266 1.80253 6.92209 2.06847C7.20152 2.3344 7.40077 2.67337 7.4972 3.04687C7.54279 3.22351 7.65667 3.37481 7.81381 3.46748C7.97094 3.56015 8.15846 3.5866 8.33509 3.54101C8.51173 3.49543 8.66303 3.38154 8.7557 3.22441C8.84837 3.06727 8.87482 2.87976 8.82924 2.70312C8.69538 2.18519 8.4425 1.70564 8.0907 1.30264C7.7389 0.899643 7.2979 0.584311 6.80279 0.381737C6.30768 0.179163 5.77212 0.094939 5.23873 0.135767C4.70534 0.176594 4.18884 0.341347 3.73033 0.616915C3.27182 0.892482 2.88395 1.27126 2.59758 1.72311C2.31122 2.17496 2.13426 2.6874 2.08079 3.21967C2.02733 3.75195 2.09883 4.28935 2.2896 4.78913C2.48038 5.2889 2.78516 5.73726 3.1797 6.09851C2.24581 6.50366 1.43407 7.14594 0.825017 7.96164C0.715501 8.10751 0.668417 8.29091 0.694122 8.47149C0.719828 8.65208 0.816218 8.81505 0.962087 8.92457C1.10796 9.03408 1.29136 9.08117 1.47194 9.05546C1.65252 9.02976 1.8155 8.93337 1.92502 8.7875C2.3394 8.2305 2.87876 7.77858 3.4997 7.46811C4.12064 7.15765 4.80579 6.9973 5.50002 7C5.68235 7 5.85722 6.92757 5.98615 6.79863C6.11508 6.6697 6.18752 6.49483 6.18752 6.3125Z" fill="#F9F3E7"/>
</svg>
